<svg t="1581045996691" class="icon" viewBox="0 0 1024 1024" version="1.1" xmlns="http://www.w3.org/2000/svg" p-id="884" width="32" height="32"><path d="M512.306985 807.37084c-8.18627 0-15.963226-3.581493-21.284301-9.925851-9.107225-10.744479-222.25722-265.132807-222.25722-407.983212 0-134.254822 109.286699-243.541521 243.541521-243.541521s243.541521 109.286699 243.541521 243.541521c0 143.055061-213.149995 397.238733-222.25722 408.08554-5.321075 6.139702-13.098031 9.823524-21.284301 9.823523z m0-605.783951C408.750675 201.586889 324.432098 285.905466 324.432098 389.461777c0 90.969921 120.645148 261.551314 187.772559 345.972219C579.332068 651.013091 699.977216 480.534026 699.977216 389.461777c0.102328-103.556311-84.11392-187.874888-187.670231-187.874888z" p-id="885"></path><path d="M512.306985 527.605076c-65.080843 0-118.086939-53.006096-118.086939-118.086939S447.226142 291.431198 512.306985 291.431198 630.393924 344.437294 630.393924 409.518137s-53.006096 118.086939-118.086939 118.086939z m0-180.404916c-34.382332 0-62.317977 27.935645-62.317977 62.317977s27.935645 62.317977 62.317977 62.317978c34.382332 0 62.317977-27.935645 62.317978-62.317978s-27.935645-62.317977-62.317978-62.317977zM512 878.079744c-60.27141 0-257.048866-5.116419-257.048866-71.015889 0-29.470571 35.405616-48.810633 111.333267-60.783052 12.177076-1.944239 23.535525 6.344359 25.479764 18.521435 1.944239 12.177076-6.344359 23.637854-18.521435 25.479765-34.689317 5.525732-54.950335 11.972419-65.694814 16.781852 25.479764 11.256121 95.574698 26.298391 204.452084 26.298391s178.972319-15.04227 204.452084-26.298391c-10.744479-4.809433-31.005496-11.358449-65.694814-16.781852-12.177076-1.944239-20.465674-13.405016-18.521435-25.479765 1.944239-12.177076 13.405016-20.465674 25.479764-18.521435 75.927651 12.074748 111.333267 31.312481 111.333267 60.783052 0 65.89947-196.777456 71.015889-257.048866 71.015889z" p-id="886"></path></svg>